<?xml version="1.0" encoding="UTF-8" standalone="no"?>
<!-- Created with Inkscape (http://www.inkscape.org/) -->

<svg
   xmlns:dc="http://purl.org/dc/elements/1.1/"
   xmlns:cc="http://creativecommons.org/ns#"
   xmlns:rdf="http://www.w3.org/1999/02/22-rdf-syntax-ns#"
   xmlns:svg="http://www.w3.org/2000/svg"
   xmlns="http://www.w3.org/2000/svg"
   xmlns:sodipodi="http://sodipodi.sourceforge.net/DTD/sodipodi-0.dtd"
   xmlns:inkscape="http://www.inkscape.org/namespaces/inkscape"
   version="1.1"
   id="svg2"
   xml:space="preserve"
   width="1346.783"
   height="1370.7915"
   viewBox="0 0 1346.783 1370.7915"
   sodipodi:docname="Petit design bois.svg"
   inkscape:version="0.92.2 2405546, 2018-03-11"><metadata
     id="metadata8"><rdf:RDF><cc:Work
         rdf:about=""><dc:format>image/svg+xml</dc:format><dc:type
           rdf:resource="http://purl.org/dc/dcmitype/StillImage" /><dc:title></dc:title></cc:Work></rdf:RDF></metadata><defs
     id="defs6"><clipPath
       clipPathUnits="userSpaceOnUse"
       id="clipPath18"><path
         d="M 0,1461.698 H 1972.88 V 0 H 0 Z"
         id="path16"
         inkscape:connector-curvature="0" /></clipPath></defs><sodipodi:namedview
     pagecolor="#ffffff"
     bordercolor="#666666"
     borderopacity="1"
     objecttolerance="10"
     gridtolerance="10"
     guidetolerance="10"
     inkscape:pageopacity="0"
     inkscape:pageshadow="2"
     inkscape:window-width="1311"
     inkscape:window-height="704"
     id="namedview4"
     showgrid="false"
     fit-margin-top="0"
     fit-margin-left="0"
     fit-margin-right="0"
     fit-margin-bottom="0"
     inkscape:zoom="0.25"
     inkscape:cx="781.74325"
     inkscape:cy="884.77182"
     inkscape:window-x="55"
     inkscape:window-y="30"
     inkscape:window-maximized="1"
     inkscape:current-layer="g10" /><g
     id="g10"
     inkscape:groupmode="layer"
     inkscape:label="Projet uselessbox 3.1 print"
     transform="matrix(1.3333333,0,0,-1.3333333,-167.15858,1707.7975)"><g
       id="g12"
       style="stroke-width:0.56692916;stroke-miterlimit:4;stroke-dasharray:none"><g
         id="g14"
         clip-path="url(#clipPath18)"
         style="stroke-width:0.56692916;stroke-miterlimit:4;stroke-dasharray:none"><g
           id="g20"
           transform="translate(179.7954,900.4691)"
           style="stroke-width:0.56692916;stroke-miterlimit:4;stroke-dasharray:none"><path
             d="m 0,0 c -4.533,0 -8.22,-3.688 -8.22,-8.22 0,-4.533 3.687,-8.22 8.22,-8.22 4.533,0 8.22,3.687 8.22,8.22 C 8.22,-3.688 4.533,0 0,0 Z m 16.724,-121.889 v 11.338 H -54.143 V 94.111 h 70.867 v 11.339 h 85.607 V 94.111 h 59.527 V 34.583 h 11.339 v -85.607 h -11.339 v -59.527 h -59.527 v -11.338 H 17.008 Z"
             style="fill:none;stroke:#0000ff;stroke-width:0.56692916;stroke-linecap:butt;stroke-linejoin:miter;stroke-miterlimit:4;stroke-dasharray:none;stroke-opacity:1"
             id="path22"
             inkscape:connector-curvature="0" /></g><g
           id="g24"
           transform="translate(212.3936,1119.8397)"
           style="stroke-width:0.56692916;stroke-miterlimit:4;stroke-dasharray:none"><path
             d="m 0,0 c -0.625,0 -1.133,-0.508 -1.133,-1.134 0,-0.625 0.508,-1.133 1.133,-1.133 0.625,0 1.134,0.508 1.134,1.133 C 1.134,-0.508 0.625,0 0,0 Z m -25.512,-25.512 c -0.625,0 -1.133,-0.508 -1.133,-1.134 0,-0.625 0.508,-1.133 1.133,-1.133 0.626,0 1.134,0.508 1.134,1.133 0,0.626 -0.508,1.134 -1.134,1.134 z m 51.024,0 c -0.625,0 -1.134,-0.508 -1.134,-1.134 0,-0.625 0.509,-1.133 1.134,-1.133 0.625,0 1.134,0.508 1.134,1.133 0,0.626 -0.509,1.134 -1.134,1.134 z M 0,-24.095 c -1.407,0 -2.551,-1.144 -2.551,-2.551 0,-1.406 1.144,-2.55 2.551,-2.55 1.407,0 2.551,1.144 2.551,2.55 0,1.407 -1.144,2.551 -2.551,2.551 z m 0,-26.928 c -0.625,0 -1.133,-0.509 -1.133,-1.134 0,-0.626 0.508,-1.134 1.133,-1.134 0.625,0 1.134,0.508 1.134,1.134 0,0.625 -0.509,1.134 -1.134,1.134 z m 0,-18.426 c -23.602,0 -42.803,19.202 -42.803,42.803 0,23.602 19.201,42.804 42.803,42.804 5.122,0 10.142,-0.903 14.924,-2.682 l 43.975,44.641 c 2.051,2.082 3.18,4.837 3.18,7.758 v 49.212 c 0,6.096 -4.959,11.055 -11.055,11.055 H -3.118 v 11.338 h -11.339 v 11.906 h 11.339 v 11.339 h 54.142 c 25.164,0 45.638,-20.474 45.638,-45.638 V 65.679 c 0,-12.085 -4.678,-23.475 -13.17,-32.072 L 39.724,-10.702 c 2.044,-5.085 3.08,-10.447 3.08,-15.944 0,-23.601 -19.202,-42.803 -42.804,-42.803 z"
             style="fill:none;stroke:#0000ff;stroke-width:0.56692916;stroke-linecap:butt;stroke-linejoin:miter;stroke-miterlimit:4;stroke-dasharray:none;stroke-opacity:1"
             id="path26"
             inkscape:connector-curvature="0" /></g><path
           d="m 304.827,1073.637 h -10.771 v 10.771 h 10.771 z m 9.024,22.677 h -28.819 c -1.592,0 -2.882,-1.29 -2.882,-2.882 v -28.819 c 0,-1.592 1.29,-2.882 2.882,-2.882 h 28.819 c 1.591,0 2.881,1.29 2.881,2.882 v 28.819 c 0,1.592 -1.29,2.882 -2.881,2.882 z"
           style="fill:none;stroke:#0000ff;stroke-width:0.56692916;stroke-linecap:butt;stroke-linejoin:miter;stroke-miterlimit:4;stroke-dasharray:none;stroke-opacity:1"
           id="path28"
           inkscape:connector-curvature="0" /><g
           id="g30"
           transform="translate(1072.2529,516.659)"
           style="stroke-width:0.56692916;stroke-miterlimit:4;stroke-dasharray:none"><path
             d="M 0,0 -0.001,11.339 H -22.678 V 216 H 0 v 11.339 H 31.748 L 31.747,216 H 57.26 V 155.907 L 45.921,155.906 V 71.434 H 57.26 V 11.339 H 31.749 L 31.748,0 Z"
             style="fill:none;stroke:#0000ff;stroke-width:0.56692916;stroke-linecap:butt;stroke-linejoin:miter;stroke-miterlimit:4;stroke-dasharray:none;stroke-opacity:1"
             id="path32"
             inkscape:connector-curvature="0" /></g><g
           id="g34"
           transform="translate(950.3633,254.7381)"
           style="stroke-width:0.56692916;stroke-miterlimit:4;stroke-dasharray:none"><path
             d="m 0,0 v 11.34 h -59.528 v 59.527 h -11.339 v 85.607 h 11.339 v 59.527 H 0 v 11.338 h 85.605 v -11.338 h 70.868 V 11.34 H 85.605 V 0 Z"
             style="fill:none;stroke:#0000ff;stroke-width:0.56692916;stroke-linecap:butt;stroke-linejoin:miter;stroke-miterlimit:4;stroke-dasharray:none;stroke-opacity:1"
             id="path36"
             inkscape:connector-curvature="0" /></g><path
           d="m 970.205,692.407 h -44.593 v -10.771 h 44.593 z m 34.015,-175.748 v 11.339 h -33.449 l -0.002,-11.339 h -45.92 l 10e-4,11.339 h -45.355 v 60.094 l 11.338,10e-4 v 84.472 h -11.338 v 60.095 l 45.355,-10e-4 -10e-4,11.339 h 45.92 l 0.003,-11.339 33.446,10e-4 v 11.338 h 11.906 V 516.659 h -11.907 z"
           style="fill:none;stroke:#0000ff;stroke-width:0.56692916;stroke-linecap:butt;stroke-linejoin:miter;stroke-miterlimit:4;stroke-dasharray:none;stroke-opacity:1"
           id="path38"
           inkscape:connector-curvature="0" /><path
           d="m 323.906,692.407 h -44.593 v -10.771 h 44.593 z m -102.047,-175.748 -0.002,11.339 h -70.864 v 60.095 h 11.338 v 84.472 h -11.338 v 60.094 h 70.864 l 0.002,11.339 h 77.102 v -11.339 h 70.867 v -60.094 h -11.339 v -84.472 h 11.339 v -60.095 h -70.867 v -11.339 z"
           style="fill:none;stroke:#0000ff;stroke-width:0.56692916;stroke-linecap:butt;stroke-linejoin:miter;stroke-miterlimit:4;stroke-dasharray:none;stroke-opacity:1"
           id="path40"
           inkscape:connector-curvature="0" /><g
           id="g42"
           transform="translate(340.9131,280.8177)"
           style="stroke-width:0.56692916;stroke-miterlimit:4;stroke-dasharray:none"><path
             d="m 0,0 v 28.062 c 0,9.223 -7.502,16.725 -16.724,16.725 h -144.567 c -9.222,0 -16.724,-7.502 -16.724,-16.725 V 0 Z m -136.062,-26.08 -10e-4,11.339 -59.527,10e-4 v 153.637 h 28.346 v 10.772 l -28.346,-0.001 v 40.253 h 59.527 l 10e-4,11.339 h 85.605 l 10e-4,-11.339 H 20.41 v -40.253 l -28.347,0.001 v -10.772 l 28.347,0.001 V 98.645 h -161.859 c -4.532,0 -8.22,-3.687 -8.22,-8.22 v -5.669 c 0,-4.533 3.688,-8.221 8.22,-8.221 H 20.41 V -14.74 l -70.866,-10e-4 V -26.08 Z"
             style="fill:none;stroke:#0000ff;stroke-width:0.56692916;stroke-linecap:butt;stroke-linejoin:miter;stroke-miterlimit:4;stroke-dasharray:none;stroke-opacity:1"
             id="path44"
             inkscape:connector-curvature="0" /></g><path
           d="m 218.457,443.526 h 58.394 v -36.851 h -58.394 z"
           style="fill:none;stroke:#0000ff;stroke-width:0.56692916;stroke-linecap:butt;stroke-linejoin:miter;stroke-miterlimit:4;stroke-dasharray:none;stroke-opacity:1"
           id="path46"
           inkscape:connector-curvature="0" /><path
           d="m 780.284,879.494 h -84.472 v -10.771 h 84.472 z m 0,-107.716 v 11.339 h -84.472 v -11.339 h -142.3 v 11.339 H 469.04 v -11.339 h -71.434 v 71.433 h 11.339 v 75.968 h -11.339 v 71.433 h 71.434 v -11.338 h 84.472 v 11.338 h 71.433 v -37.134 c 0,-24.852 20.219,-45.07 45.071,-45.07 h 153.355 v -5.953 c 0,-12.348 10.046,-22.394 22.394,-22.394 h 5.952 v -17.574 h -11.338 v -44.788 h 11.338 v -45.921 z"
           style="fill:none;stroke:#0000ff;stroke-width:0.56692916;stroke-linecap:butt;stroke-linejoin:miter;stroke-miterlimit:4;stroke-dasharray:none;stroke-opacity:1"
           id="path48"
           inkscape:connector-curvature="0" /><path
           d="m 780.284,374.927 h -84.472 v -10.771 h 84.472 z M 553.512,253.038 v 11.338 H 469.04 v -11.338 h -71.434 v 71.433 h 11.339 v 75.968 h -11.339 v 71.433 h 71.434 v -11.338 h 84.472 v 11.338 h 142.3 v -11.338 h 84.472 v 11.338 h 71.433 v -45.921 h -11.338 v -44.788 h 11.338 v -17.574 h -5.952 c -12.348,0 -22.394,-10.046 -22.394,-22.394 v -5.953 H 670.016 c -24.852,0 -45.071,-20.219 -45.071,-45.071 v -37.133 z"
           style="fill:none;stroke:#0000ff;stroke-width:0.56692916;stroke-linecap:butt;stroke-linejoin:miter;stroke-miterlimit:4;stroke-dasharray:none;stroke-opacity:1"
           id="path50"
           inkscape:connector-curvature="0" /><path
           d="M 695.245,692.408 H 554.079 V 681.636 H 695.245 Z M 479.954,678.802 v 6.914 c 0,1.661 -1.278,3.007 -2.854,3.007 h -36.529 c -1.576,0 -2.854,-1.346 -2.854,-3.007 v -6.914 z M 695.245,516.66 v 11.338 H 554.079 V 516.66 h -85.606 v 11.338 h -59.528 v 59.528 h -11.338 v 85.606 h 11.338 v 59.527 h 59.528 v 11.339 h 85.606 v -11.339 h 141.166 v 11.339 h 85.606 v -11.339 h 59.528 v -59.527 h 11.339 V 587.526 H 840.379 V 527.998 H 780.851 V 516.66 Z"
           style="fill:none;stroke:#0000ff;stroke-width:0.56692916;stroke-linecap:butt;stroke-linejoin:miter;stroke-miterlimit:4;stroke-dasharray:none;stroke-opacity:1"
           id="path52"
           inkscape:connector-curvature="0" /><g
           id="g54"
           transform="translate(1112.2178,1161.5409)"
           style="stroke-width:0.56692916;stroke-miterlimit:4;stroke-dasharray:none"><path
             d="m 0,0 c -4.533,0 -8.22,-3.688 -8.22,-8.22 0,-4.533 3.687,-8.22 8.22,-8.22 4.533,0 8.22,3.687 8.22,8.22 C 8.22,-3.688 4.533,0 0,0 Z m -65.48,-96.378 -10e-4,11.339 h -84.471 v -11.339 h -71.434 v 37.134 c 0,25.165 20.473,45.638 45.638,45.638 H -22.96 l -10e-4,5.386 c 0,12.66 10.3,22.96 22.961,22.96 0.865,0 1.744,-0.049 2.612,-0.144 C 13.017,13.447 21.499,5.081 22.78,-5.298 24.187,-16.703 16.964,-27.454 5.953,-30.401 v -9.284 H -5.385 V -70.299 L 5.953,-70.3 v -26.078 z"
             style="fill:none;stroke:#0000ff;stroke-width:0.56692916;stroke-linecap:butt;stroke-linejoin:miter;stroke-miterlimit:4;stroke-dasharray:none;stroke-opacity:1"
             id="path56"
             inkscape:connector-curvature="0" /></g><g
           id="g58"
           transform="translate(1120.438,880.1234)"
           style="stroke-width:0.56692916;stroke-miterlimit:4;stroke-dasharray:none"><path
             d="m 0,0 c 0,4.533 -3.688,8.22 -8.22,8.22 -4.533,0 -8.22,-3.687 -8.22,-8.22 0,-4.533 3.687,-8.22 8.22,-8.22 C -3.688,-8.22 0,-4.533 0,0 Z M -2.267,88.158 V 62.08 L -13.605,62.079 V 31.465 H -2.267 V 22.181 C 8.744,19.233 15.967,8.482 14.56,-2.922 13.278,-13.301 4.796,-21.667 -5.608,-22.816 c -0.869,-0.096 -1.747,-0.144 -2.612,-0.144 -12.661,0 -22.961,10.299 -22.961,22.96 v 5.386 h -152.787 c -25.165,0 -45.638,20.473 -45.638,45.637 v 37.135 h 71.434 V 76.819 h 84.471 l 10e-4,11.339 z"
             style="fill:none;stroke:#0000ff;stroke-width:0.56692916;stroke-linecap:butt;stroke-linejoin:miter;stroke-miterlimit:4;stroke-dasharray:none;stroke-opacity:1"
             id="path60"
             inkscape:connector-curvature="0" /></g><g
           id="g62"
           transform="translate(519.7803,1134.9906)"
           style="stroke-width:0.56692916;stroke-miterlimit:4;stroke-dasharray:none"><path
             d="m 0,0 c -1.407,0 -2.551,-1.144 -2.551,-2.551 0,-1.407 1.144,-2.551 2.551,-2.551 1.407,0 2.551,1.144 2.551,2.551 C 2.551,-1.144 1.407,0 0,0 Z m 76.535,0 c -1.407,0 -2.551,-1.144 -2.551,-2.551 0,-1.407 1.144,-2.551 2.551,-2.551 1.407,0 2.551,1.144 2.551,2.551 C 79.086,-1.144 77.942,0 76.535,0 Z M -76.131,21.26 c -3.193,0 -5.79,-2.416 -5.79,-5.386 V -1.134 c 0,-2.97 2.597,-5.385 5.79,-5.385 h 30.371 c 3.193,0 5.791,2.415 5.791,5.385 v 17.008 c 0,2.97 -2.598,5.386 -5.791,5.386 z m -0.404,-49.606 c -1.407,0 -2.551,-1.145 -2.551,-2.551 0,-1.407 1.144,-2.552 2.551,-2.552 1.407,0 2.551,1.145 2.551,2.552 0,1.406 -1.144,2.551 -2.551,2.551 z m 31.181,0 c -1.407,0 -2.551,-1.145 -2.551,-2.551 0,-1.407 1.144,-2.552 2.551,-2.552 1.406,0 2.551,1.145 2.551,2.552 0,1.406 -1.145,2.551 -2.551,2.551 z m 79.085,-68.032 v 11.339 l -73.7,-0.001 v 48.19 h -5.386 c -3.282,0 -5.953,2.67 -5.953,5.953 v 5.669 c 0,1.407 -1.144,2.551 -2.551,2.551 h -14.173 c -1.406,0 -2.551,-1.144 -2.551,-2.551 v -5.669 c 0,-3.283 -2.671,-5.953 -5.953,-5.953 h -5.385 v -48.19 h -28.914 v 34.017 h -11.339 v 45.921 h 11.339 V 40.252 H 5.952 V 17.51 c 0.419,-0.199 0.71,-0.836 0.71,-1.635 0,-0.8 -0.29,-1.437 -0.709,-1.637 L 5.952,-16.724 c 0,-1.407 1.145,-2.551 2.552,-2.551 h 59.527 c 1.407,0 2.552,1.144 2.552,2.551 v 30.962 c -0.419,0.2 -0.709,0.837 -0.709,1.637 0,0.799 0.29,1.436 0.709,1.635 v 22.742 h 34.582 V 11.905 l 28.346,0.001 V 0.567 h 56.694 l -0.001,-56.692 h 56.127 L 246.33,0.567 h 45.354 v 11.339 h 28.914 l -0.001,-17.009 11.34,10e-4 v -45.921 h -11.34 l 0.001,-34.016 H 176.032 v -11.339 z"
             style="fill:none;stroke:#0000ff;stroke-width:0.56692916;stroke-linecap:butt;stroke-linejoin:miter;stroke-miterlimit:4;stroke-dasharray:none;stroke-opacity:1"
             id="path64"
             inkscape:connector-curvature="0" /></g><g
           id="g66"
           transform="translate(155.231,889.8719)"
           style="stroke-width:0.56692916;stroke-miterlimit:4;stroke-dasharray:none"><path
             d="m 0,0 c -1.148,0.168 -3.053,0.154 -4.202,0 -0.826,-0.112 -1.583,-0.715 -1.583,-1.821 0,-0.911 0.56,-1.695 1.583,-1.821 1.149,-0.14 3.054,-0.14 4.202,0 0.812,0.112 1.583,0.728 1.583,1.821 C 1.583,-0.883 1.009,-0.14 0,0 m -4.202,1.331 c 1.12,0.14 3.082,0.126 4.202,0 1.541,-0.168 2.914,-1.303 2.914,-3.152 0,-1.681 -1.107,-2.928 -2.914,-3.152 -1.134,-0.14 -3.082,-0.14 -4.202,0 -1.527,0.182 -2.914,1.303 -2.914,3.152 0,1.681 1.107,2.927 2.914,3.152"
             style="fill:#ff0000;fill-opacity:1;fill-rule:nonzero;stroke:none;stroke-width:0.56692916;stroke-miterlimit:4;stroke-dasharray:none"
             id="path68"
             inkscape:connector-curvature="0" /></g><g
           id="g70"
           transform="translate(158.0327,898.4119)"
           style="stroke-width:0.56692916;stroke-miterlimit:4;stroke-dasharray:none"><path
             d="m 0,0 c 0,-0.154 -0.042,-0.224 -0.238,-0.294 l -6.934,-2.76 c -0.056,-0.028 -0.042,-0.112 0.028,-0.112 h 6.864 c 0.154,0 0.28,-0.126 0.28,-0.28 L 0,-4.161 C 0,-4.314 -0.126,-4.44 -0.28,-4.44 h -9.245 c -0.154,0 -0.28,0.126 -0.28,0.279 v 1.163 c 0,0.154 0.042,0.225 0.238,0.294 l 6.905,2.76 c 0.057,0.028 0.042,0.112 -0.027,0.112 h -6.836 c -0.154,0 -0.28,0.126 -0.28,0.28 v 0.715 c 0,0.153 0.126,0.279 0.28,0.279 H -0.28 C -0.126,1.442 0,1.316 0,1.163 Z"
             style="fill:#ff0000;fill-opacity:1;fill-rule:nonzero;stroke:none;stroke-width:0.56692916;stroke-miterlimit:4;stroke-dasharray:none"
             id="path72"
             inkscape:connector-curvature="0" /></g><g
           id="g74"
           transform="translate(209.2251,886.8983)"
           style="stroke-width:0.56692916;stroke-miterlimit:4;stroke-dasharray:none"><path
             d="m 0,0 c -1.148,0.168 -3.053,0.154 -4.202,0 -0.826,-0.112 -1.583,-0.715 -1.583,-1.821 0,-0.911 0.56,-1.695 1.583,-1.821 1.149,-0.14 3.054,-0.14 4.202,0 0.812,0.112 1.583,0.728 1.583,1.821 C 1.583,-0.883 1.009,-0.14 0,0 m -4.202,1.331 c 1.12,0.14 3.082,0.126 4.202,0 1.541,-0.168 2.914,-1.303 2.914,-3.152 0,-1.681 -1.107,-2.928 -2.914,-3.152 -1.134,-0.14 -3.082,-0.14 -4.202,0 -1.527,0.182 -2.914,1.303 -2.914,3.152 0,1.681 1.107,2.927 2.914,3.152"
             style="fill:#ff0000;fill-opacity:1;fill-rule:nonzero;stroke:none;stroke-width:0.56692916;stroke-miterlimit:4;stroke-dasharray:none"
             id="path76"
             inkscape:connector-curvature="0" /></g><g
           id="g78"
           transform="translate(207.8247,892.3284)"
           style="stroke-width:0.56692916;stroke-miterlimit:4;stroke-dasharray:none"><path
             d="m 0,0 h 3.922 c 0.154,0 0.28,-0.126 0.28,-0.28 v -0.771 c 0,-0.154 -0.126,-0.28 -0.28,-0.28 h -9.245 c -0.154,0 -0.28,0.126 -0.28,0.28 v 4.525 c 0,0.154 0.126,0.28 0.28,0.28 h 0.77 c 0.155,0 0.281,-0.126 0.281,-0.28 V 0.14 C -4.272,0.056 -4.216,0 -4.132,0 h 2.521 c 0.084,0 0.14,0.056 0.14,0.14 v 3.18 c 0,0.154 0.126,0.28 0.28,0.28 h 0.771 c 0.154,0 0.28,-0.126 0.28,-0.28 V 0.14 C -0.14,0.056 -0.084,0 0,0"
             style="fill:#ff0000;fill-opacity:1;fill-rule:nonzero;stroke:none;stroke-width:0.56692916;stroke-miterlimit:4;stroke-dasharray:none"
             id="path80"
             inkscape:connector-curvature="0" /></g><g
           id="g82"
           transform="translate(207.8247,899.7205)"
           style="stroke-width:0.56692916;stroke-miterlimit:4;stroke-dasharray:none"><path
             d="m 0,0 h 3.922 c 0.154,0 0.28,-0.126 0.28,-0.28 v -0.771 c 0,-0.154 -0.126,-0.28 -0.28,-0.28 h -9.245 c -0.154,0 -0.28,0.126 -0.28,0.28 v 4.525 c 0,0.154 0.126,0.28 0.28,0.28 h 0.77 c 0.155,0 0.281,-0.126 0.281,-0.28 V 0.14 C -4.272,0.056 -4.216,0 -4.132,0 h 2.521 c 0.084,0 0.14,0.056 0.14,0.14 v 3.18 c 0,0.154 0.126,0.28 0.28,0.28 h 0.771 c 0.154,0 0.28,-0.126 0.28,-0.28 V 0.14 C -0.14,0.056 -0.084,0 0,0"
             style="fill:#ff0000;fill-opacity:1;fill-rule:nonzero;stroke:none;stroke-width:0.56692916;stroke-miterlimit:4;stroke-dasharray:none"
             id="path84"
             inkscape:connector-curvature="0" /></g></g></g></g></svg>