<?xml version="1.0" encoding="UTF-8" standalone="no"?>
<!-- Created with Inkscape (http://www.inkscape.org/) -->

<svg
   xmlns:dc="http://purl.org/dc/elements/1.1/"
   xmlns:cc="http://creativecommons.org/ns#"
   xmlns:rdf="http://www.w3.org/1999/02/22-rdf-syntax-ns#"
   xmlns:svg="http://www.w3.org/2000/svg"
   xmlns="http://www.w3.org/2000/svg"
   xmlns:sodipodi="http://sodipodi.sourceforge.net/DTD/sodipodi-0.dtd"
   xmlns:inkscape="http://www.inkscape.org/namespaces/inkscape"
   version="1.1"
   id="svg2"
   xml:space="preserve"
   width="3087.874"
   height="1965.4548"
   viewBox="0 0 3087.874 1965.4548"
   sodipodi:docname="Grand design bois - base modifiable.svg"
   inkscape:version="0.92.2 2405546, 2018-03-11"><metadata
     id="metadata8"><rdf:RDF><cc:Work
         rdf:about=""><dc:format>image/svg+xml</dc:format><dc:type
           rdf:resource="http://purl.org/dc/dcmitype/StillImage" /><dc:title></dc:title></cc:Work></rdf:RDF></metadata><defs
     id="defs6"><clipPath
       clipPathUnits="userSpaceOnUse"
       id="clipPath26"><path
         d="M 0,5669.29 H 5669.29 V 0 H 0 Z"
         id="path24"
         inkscape:connector-curvature="0" /></clipPath><clipPath
       clipPathUnits="userSpaceOnUse"
       id="clipPath80"><path
         d="M 0,5669.29 H 5669.29 V 0 H 0 Z"
         id="path78"
         inkscape:connector-curvature="0" /></clipPath><clipPath
       clipPathUnits="userSpaceOnUse"
       id="clipPath96"><path
         d="M 0,5669.29 H 5669.29 V 0 H 0 Z"
         id="path94"
         inkscape:connector-curvature="0" /></clipPath><clipPath
       clipPathUnits="userSpaceOnUse"
       id="clipPath104"><path
         d="m 2030.46,4650.8 h 12.47 v -12.47 h -12.47 z"
         id="path102"
         inkscape:connector-curvature="0" /></clipPath><clipPath
       clipPathUnits="userSpaceOnUse"
       id="clipPath120"><path
         d="m 2012.6,4668.66 h 48.19 v -48.19 h -48.19 z"
         id="path118"
         inkscape:connector-curvature="0" /></clipPath><clipPath
       clipPathUnits="userSpaceOnUse"
       id="clipPath136"><path
         d="m 2767.46,4650.8 h 12.48 v -12.47 h -12.48 z"
         id="path134"
         inkscape:connector-curvature="0" /></clipPath><clipPath
       clipPathUnits="userSpaceOnUse"
       id="clipPath152"><path
         d="m 2749.61,4668.66 h 48.19 v -48.19 h -48.19 z"
         id="path150"
         inkscape:connector-curvature="0" /></clipPath><clipPath
       clipPathUnits="userSpaceOnUse"
       id="clipPath168"><path
         d="m 1652.6,3463.94 h 65.2 v -34.02 h -65.2 z"
         id="path166"
         inkscape:connector-curvature="0" /></clipPath><clipPath
       clipPathUnits="userSpaceOnUse"
       id="clipPath182"><path
         d="m 1683.78,3463.94 h 34.02 v -34.02 h -34.02 z"
         id="path180"
         inkscape:connector-curvature="0" /></clipPath><clipPath
       clipPathUnits="userSpaceOnUse"
       id="clipPath198"><path
         d="m 1695.12,3452.6 h 11.34 v -11.34 h -11.34 z"
         id="path196"
         inkscape:connector-curvature="0" /></clipPath></defs><sodipodi:namedview
     pagecolor="#ffffff"
     bordercolor="#666666"
     borderopacity="1"
     objecttolerance="10"
     gridtolerance="10"
     guidetolerance="10"
     inkscape:pageopacity="0"
     inkscape:pageshadow="2"
     inkscape:window-width="1311"
     inkscape:window-height="704"
     id="namedview4"
     showgrid="false"
     fit-margin-bottom="0.1"
     fit-margin-top="0"
     fit-margin-left="0"
     fit-margin-right="0"
     inkscape:zoom="0.2432007"
     inkscape:cx="1543.937"
     inkscape:cy="982.72742"
     inkscape:window-x="55"
     inkscape:window-y="30"
     inkscape:window-maximized="1"
     inkscape:current-layer="g10" /><g
     id="g10"
     inkscape:groupmode="layer"
     inkscape:label="Projet uselessbox 2.2"
     transform="matrix(1.3333333,0,0,-1.3333333,-642.51985,6349.6053)"><g
       id="g12"
       transform="translate(2409.4487,4149.9199)"><path
         d="M 0,0 V -11.338 H -56.692 L -56.693,0 h -25.512 v 260.788 h 25.512 l 10e-4,11.338 H 0 V 260.788 H 28.347 V 215.433 H 17.008 V 158.74 H 28.347 V 102.047 H 17.008 V 45.354 H 28.347 V 0 Z"
         style="fill:#2b2b2a;fill-opacity:1;fill-rule:nonzero;stroke:none"
         id="path14"
         inkscape:connector-curvature="0" /></g><g
       id="g16"
       transform="translate(2721.2598,4149.9199)"><path
         d="M 0,0 V -11.338 H -56.693 V 0 h -56.693 v -11.338 h -56.693 V 0 h -45.354 v 45.354 h -11.338 v 56.693 h 11.338 v 56.693 h -11.338 v 56.693 h 11.338 v 45.355 h 45.354 v 11.338 h 56.693 v -11.338 h 56.693 v 11.338 H 0 V 260.788 H 56.693 V 0 Z"
         style="fill:#2b2b2a;fill-opacity:1;fill-rule:nonzero;stroke:none"
         id="path18"
         inkscape:connector-curvature="0" /></g><g
       id="g20"><g
         id="g22"
         clip-path="url(#clipPath26)"><g
           id="g28"
           transform="translate(2772.2832,4636.9121)"><path
             d="m 0,0 c -4.227,0 -7.653,3.427 -7.653,7.654 0,4.226 3.426,7.653 7.653,7.653 4.227,0 7.654,-3.427 7.654,-7.653 C 7.654,3.427 4.227,0 0,0 m 5.669,31.366 v 8.886 H -5.669 V 96.945 H 5.669 v 28.347 h -56.692 v -11.339 h -56.693 v 11.339 h -56.693 v -11.339 h -56.693 l -0.001,11.339 h -56.692 V 60.095 c 0,-26.615 21.575,-48.19 48.189,-48.19 H -22.677 V 7.653 c 0,-13.307 10.788,-24.094 24.094,-24.094 13.308,0 24.095,10.787 24.095,24.094 0,11.856 -8.564,21.704 -19.843,23.713"
             style="fill:#2b2b2a;fill-opacity:1;fill-rule:nonzero;stroke:none"
             id="path30"
             inkscape:connector-curvature="0" /></g><g
           id="g32"
           transform="translate(2779.937,4006.7705)"><path
             d="m 0,0 c 0,-4.227 -3.427,-7.654 -7.654,-7.654 -4.226,0 -7.653,3.427 -7.653,7.654 0,4.227 3.427,7.653 7.653,7.653 C -3.427,7.653 0,4.227 0,0 M 17.858,0 C 17.858,13.307 7.071,24.094 -6.236,24.094 -19.543,24.094 -30.331,13.307 -30.331,0 V -4.252 H -237.26 c -26.614,0 -48.189,-21.575 -48.189,-48.189 v -65.197 h 56.693 v 11.339 h 56.693 v -11.339 h 56.693 v 11.339 h 56.693 v -11.339 h 56.693 v 28.346 h -11.339 v 56.693 h 11.339 v 8.886 C 9.294,-21.704 17.858,-11.855 17.858,0"
             style="fill:#2b2b2a;fill-opacity:1;fill-rule:nonzero;stroke:none"
             id="path34"
             inkscape:connector-curvature="0" /></g><g
           id="g36"
           transform="translate(935.4331,4271.8096)"><path
             d="m 0,0 c -4.697,0 -8.504,3.808 -8.504,8.504 0,4.697 3.807,8.504 8.504,8.504 4.697,0 8.504,-3.807 8.504,-8.504 C 8.504,3.808 4.697,0 0,0 m 141.732,36.851 v 56.692 h -11.338 v 56.693 H 85.039 L 85.04,138.898 H 28.346 l 0.001,11.338 h -56.693 l -0.001,-11.338 H -85.04 l 0.001,11.338 h -56.693 v -283.464 h 56.693 l -0.001,11.338 h 56.693 l 0.001,-11.338 h 56.693 l -0.001,11.338 H 85.04 l -0.001,-11.338 h 45.355 v 56.693 l 11.338,-0.001 v 56.694 h -11.338 v 56.693 z"
             style="fill:#2b2b2a;fill-opacity:1;fill-rule:nonzero;stroke:none"
             id="path38"
             inkscape:connector-curvature="0" /></g><g
           id="g40"
           transform="translate(1374.8032,4490.0771)"><path
             d="m 0,0 v 45.354 h 11.338 v 56.693 H 0 v 28.348 h -45.354 v -11.34 h -170.079 l -0.001,11.339 h -56.692 v 34.016 h -39.685 v -31.181 c 0,-1.566 -1.269,-2.835 -2.835,-2.835 h -59.527 c -1.566,0 -2.835,1.269 -2.835,2.835 v 31.181 h -167.244 v -62.363 h -11.339 V 45.354 h 11.339 V 0 h 187.086 v -11.338 h 170.079 V 0 Z"
             style="fill:#2b2b2a;fill-opacity:1;fill-rule:nonzero;stroke:none"
             id="path42"
             inkscape:connector-curvature="0" /></g><g
           id="g44"
           transform="translate(1346.4565,3879.2114)"><path
             d="M 0,0 C -0.783,0 -1.417,0.634 -1.417,1.417 -1.417,2.2 -0.783,2.834 0,2.834 0.783,2.834 1.417,2.2 1.417,1.417 1.417,0.634 0.783,0 0,0 m -25.512,-1.417 c -1.565,0 -2.834,1.269 -2.834,2.834 0,1.566 1.269,2.835 2.834,2.835 1.566,0 2.835,-1.269 2.835,-2.835 0,-1.565 -1.269,-2.834 -2.835,-2.834 m 0,-24.095 c -0.782,0 -1.417,0.635 -1.417,1.417 0,0.783 0.635,1.418 1.417,1.418 0.783,0 1.418,-0.635 1.418,-1.418 0,-0.782 -0.635,-1.417 -1.418,-1.417 M -51.023,0 c -0.783,0 -1.418,0.634 -1.418,1.417 0,0.783 0.635,1.417 1.418,1.417 0.782,0 1.417,-0.634 1.417,-1.417 C -49.606,0.634 -50.241,0 -51.023,0 m 25.511,28.346 c 0.783,0 1.418,-0.634 1.418,-1.417 0,-0.783 -0.635,-1.417 -1.418,-1.417 -0.782,0 -1.417,0.634 -1.417,1.417 0,0.783 0.635,1.417 1.417,1.417 m 51.024,160.158 h -5.669 -48.189 v -11.339 h -11.339 v -11.338 h 11.339 v -11.339 h 39.685 14.173 c 6.262,0 11.339,-5.076 11.339,-11.339 V 93.938 c 0,-2.978 -1.172,-5.836 -3.262,-7.957 L -10.515,41.208 c -4.665,1.759 -9.716,2.729 -14.997,2.729 -23.483,0 -42.519,-19.037 -42.519,-42.52 0,-23.483 19.036,-42.52 42.519,-42.52 23.483,0 42.52,19.037 42.52,42.52 0,5.666 -1.117,11.067 -3.128,16.01 l 43.899,44.442 c 8.385,8.488 13.087,19.94 13.087,31.872 v 49.408 c 0,25.049 -20.305,45.355 -45.354,45.355"
             style="fill:#2b2b2a;fill-opacity:1;fill-rule:nonzero;stroke:none"
             id="path46"
             inkscape:connector-curvature="0" /></g><path
           d="m 1227.401,4045.038 h -14.173 v 11.338 h 14.173 z m -28.346,14.173 v -17.007 c 0,-4.697 3.807,-8.505 8.504,-8.505 h 25.512 c 4.697,0 8.504,3.808 8.504,8.505 v 17.007 c 0,4.697 -3.807,8.504 -8.504,8.504 h -25.512 c -4.697,0 -8.504,-3.807 -8.504,-8.504"
           style="fill:#2b2b2a;fill-opacity:1;fill-rule:nonzero;stroke:none"
           id="path48"
           inkscape:connector-curvature="0" /><path
           d="m 1842.52,4328.502 h -170.079 v 11.339 h 170.079 z m 198.425,36.851 v 45.355 h -56.693 v 11.338 h -56.693 l 10e-4,-11.338 h -56.694 v 11.338 h -56.693 v -11.338 h -56.693 v 11.338 h -56.693 l -10e-4,-11.338 h -56.693 l 10e-4,11.338 h -56.692 l -10e-4,-11.338 h -56.693 l 10e-4,11.338 h -45.355 v -56.692 h -11.338 v -5.669 -51.024 h 11.338 v -56.693 h -11.338 v -56.693 h 11.338 v -56.693 h 45.355 v 11.338 h 56.693 l -10e-4,-11.338 h 56.694 l -10e-4,11.338 h 56.694 v -11.338 h 56.692 v 11.338 h 56.693 v -11.338 h 56.693 v 11.338 h 56.694 l -10e-4,-11.338 h 56.693 v 11.338 h 56.693 v 45.354 h -11.339 v 56.693 h 11.339 v 56.693 h -11.339 v 56.693 z"
           style="fill:#2b2b2a;fill-opacity:1;fill-rule:nonzero;stroke:none"
           id="path50"
           inkscape:connector-curvature="0" /><path
           d="m 1360.63,4328.502 h -56.693 v 11.339 h 56.693 z m 56.693,36.851 v 56.693 h -56.693 v -11.338 h -56.693 v 11.338 h -56.693 l -10e-4,-11.338 h -56.693 v 11.338 h -56.693 v -56.693 h 11.339 v -56.693 h -11.339 v -56.694 h 11.339 v -56.693 h -11.339 v -56.692 h 56.693 v 11.338 h 56.693 l 10e-4,-11.338 h 56.693 v 11.338 h 56.693 v -11.338 h 56.693 v 56.692 h -11.339 v 56.693 h 11.339 v 56.695 h -11.339 v 56.693 z"
           style="fill:#2b2b2a;fill-opacity:1;fill-rule:nonzero;stroke:none"
           id="path52"
           inkscape:connector-curvature="0" /><path
           d="m 2211.024,4328.502 h -56.693 v 11.339 h 56.693 z m 45.355,93.544 -10e-4,-11.338 h -45.354 v 11.338 h -56.692 l -10e-4,-11.338 h -45.354 l -10e-4,-45.355 h -11.338 v -56.693 h 11.338 v -56.693 h -11.338 v -56.693 h 11.338 l 10e-4,-45.354 h 45.354 l 10e-4,-11.338 h 56.692 v 11.338 h 45.354 v -11.338 h 11.339 v 283.464 z"
           style="fill:#2b2b2a;fill-opacity:1;fill-rule:nonzero;stroke:none"
           id="path54"
           inkscape:connector-curvature="0" /><g
           id="g56"
           transform="translate(680.3149,4149.9199)"><path
             d="M 0,0 V -11.338 H -113.386 V 0 h -85.039 v 119.055 h 144.567 c 4.696,0 8.504,3.807 8.504,8.504 v 5.67 c 0,4.696 -3.808,8.503 -8.504,8.503 h -144.567 v 36.851 h 56.693 v 11.338 h -56.693 v 70.867 h 85.039 v 11.338 H 0 v -11.338 l 73.701,-0.001 V 189.921 H 28.347 V 178.583 H 73.701 V 0 Z"
             style="fill:#2b2b2a;fill-opacity:1;fill-rule:nonzero;stroke:none"
             id="path58"
             inkscape:connector-curvature="0" /></g><path
           d="M 1955.906,4609.132 H 1842.52 v 11.339 h 113.386 z m 73.7,-17.007 h 11.339 l -10e-4,28.346 h -4.251 c -13.307,0 -24.095,10.787 -24.095,24.094 v 4.252 h -161.574 -45.355 c -26.613,0 -48.189,21.576 -48.189,48.19 v 53.859 h -56.692 l -10e-4,11.338 h -56.693 l 10e-4,-11.338 h -56.693 v 11.338 h -56.693 v -11.338 h -45.355 v -45.354 h -11.338 v -56.692 h 11.338 v -56.693 h -11.338 v -56.693 h 11.338 v -45.356 h 45.354 l 10e-4,-11.338 h 56.693 l -10e-4,11.338 h 56.692 v -11.338 h 56.693 v 11.338 h 56.693 l 10e-4,-11.338 h 56.693 l -10e-4,11.338 h 56.693 l 10e-4,-11.338 h 56.693 l -10e-4,11.338 h 56.693 l 10e-4,-11.338 h 56.693 v 56.693 h -11.339 v 56.693 z"
           style="fill:#2b2b2a;fill-opacity:1;fill-rule:nonzero;stroke:none"
           id="path60"
           inkscape:connector-curvature="0" /><path
           d="M 1955.906,3940.156 H 1842.52 v 11.338 h 113.386 z m 73.7,85.04 11.339,-10e-4 v 56.694 h -56.693 l -10e-4,-11.339 h -56.693 l 10e-4,11.339 h -56.693 l -10e-4,-11.339 h -56.693 l 10e-4,11.339 h -56.693 l -10e-4,-11.339 h -56.693 v 11.339 h -56.693 v -11.339 h -56.692 l 10e-4,11.339 h -56.693 l -10e-4,-11.339 h -45.354 v -45.356 h -11.338 V 3968.5 h 11.338 v -56.693 h -11.338 v -56.691 h 11.338 v -45.354 h 45.355 v -11.338 h 56.693 v 11.338 h 56.693 l -10e-4,-11.338 h 56.693 l 10e-4,11.338 h 56.692 v 53.859 c 0,26.613 21.576,48.189 48.189,48.189 h 45.355 161.574 v 4.252 c 0,13.307 10.788,24.094 24.095,24.094 h 4.251 l 10e-4,28.346 h -11.339 z"
           style="fill:#2b2b2a;fill-opacity:1;fill-rule:nonzero;stroke:none"
           id="path62"
           inkscape:connector-curvature="0" /></g></g><g
       id="g64"
       transform="translate(1695.1182,3560.3135)"><path
         d="m 0,0 v 25.512 h -5.669 v 31.181 h -5.669 V 25.512 h -5.67 V 0 H -28.347 V -28.346 H 11.338 V 0 Z"
         style="fill:#e41f25;fill-opacity:1;fill-rule:nonzero;stroke:none"
         id="path66"
         inkscape:connector-curvature="0" /></g><g
       id="g68"
       transform="translate(2029.6064,3299.5259)"><path
         d="M 0,0 H -544.252 V 260.788 H 0 Z M -555.591,-11.338 H 11.338 v 283.465 h -566.929 z"
         style="fill:#ccbca1;fill-opacity:1;fill-rule:nonzero;stroke:none"
         id="path70"
         inkscape:connector-curvature="0" /></g><path
       d="m 1397.438,3588.66 h -206.887 v 85.04 h 206.887 z"
       style="fill:#2b2b2a;fill-opacity:1;fill-rule:nonzero;stroke:none"
       id="path72"
       inkscape:connector-curvature="0" /><g
       id="g74"><g
         id="g76"
         clip-path="url(#clipPath80)"><g
           id="g82"
           transform="translate(1726.2993,3445.5103)"><path
             d="M 0,0 C -0.783,0 -1.417,0.635 -1.417,1.417 -1.417,2.2 -0.783,2.835 0,2.835 0.783,2.835 1.417,2.2 1.417,1.417 1.417,0.635 0.783,0 0,0 m -25.512,-1.417 c -1.566,0 -2.835,1.269 -2.835,2.834 0,1.566 1.269,2.835 2.835,2.835 1.566,0 2.835,-1.269 2.835,-2.835 0,-1.565 -1.269,-2.834 -2.835,-2.834 m 0,-24.095 c -0.783,0 -1.417,0.635 -1.417,1.418 0,0.782 0.634,1.417 1.417,1.417 0.783,0 1.417,-0.635 1.417,-1.417 0,-0.783 -0.634,-1.418 -1.417,-1.418 M -51.024,0 c -0.783,0 -1.417,0.635 -1.417,1.417 0,0.783 0.634,1.418 1.417,1.418 0.783,0 1.418,-0.635 1.418,-1.418 C -49.606,0.635 -50.241,0 -51.024,0 m 25.512,28.347 c 0.783,0 1.417,-0.635 1.417,-1.418 0,-0.783 -0.634,-1.417 -1.417,-1.417 -0.783,0 -1.417,0.634 -1.417,1.417 0,0.783 0.634,1.418 1.417,1.418 m 51.024,160.157 h -5.67 -48.189 v -11.338 h -11.338 v -11.339 h 11.338 v -11.339 h 39.685 14.174 c 6.262,0 11.338,-5.076 11.338,-11.338 V 93.938 c 0,-2.978 -1.171,-5.835 -3.261,-7.957 L -10.515,41.208 c -4.665,1.759 -9.716,2.729 -14.997,2.729 -23.483,0 -42.52,-19.037 -42.52,-42.52 0,-23.482 19.037,-42.519 42.52,-42.519 23.483,0 42.52,19.037 42.52,42.519 0,5.666 -1.117,11.067 -3.129,16.01 l 43.899,44.442 c 8.386,8.489 13.088,19.941 13.088,31.873 v 49.408 c 0,25.048 -20.306,45.354 -45.354,45.354"
             style="fill:#2b2b2a;fill-opacity:1;fill-rule:nonzero;stroke:none"
             id="path84"
             inkscape:connector-curvature="0" /></g><g
           id="g86"
           transform="translate(717.1655,4104.5659)"><path
             d="m 0,0 v -178.583 h -28.347 c -9.393,0 -17.007,7.615 -17.007,17.008 V -17.008 C -45.354,-7.615 -37.74,0 -28.347,0 Z"
             style="fill:#2b2b2a;fill-opacity:1;fill-rule:nonzero;stroke:none"
             id="path88"
             inkscape:connector-curvature="0" /></g></g></g><g
       id="g90"><g
         id="g92"
         clip-path="url(#clipPath96)"><g
           id="g98"><g
             id="g100" /><g
             id="g112"><g
               clip-path="url(#clipPath104)"
               id="g110"
               style="opacity:0.5"><g
                 transform="translate(2042.9292,4644.5654)"
                 id="g108"><path
                   d="m 0,0 c 0,-3.444 -2.792,-6.236 -6.236,-6.236 -3.445,0 -6.237,2.792 -6.237,6.236 0,3.444 2.792,6.236 6.237,6.236 C -2.792,6.236 0,3.444 0,0"
                   style="fill:#fceb23;fill-opacity:1;fill-rule:nonzero;stroke:none"
                   id="path106"
                   inkscape:connector-curvature="0" /></g></g></g></g><g
           id="g114"><g
             id="g116" /><g
             id="g128"><g
               clip-path="url(#clipPath120)"
               id="g126"
               style="opacity:0.5"><g
                 transform="translate(2060.7876,4644.5654)"
                 id="g124"><path
                   d="m 0,0 c 0,-13.307 -10.788,-24.094 -24.095,-24.094 -13.307,0 -24.094,10.787 -24.094,24.094 0,13.307 10.787,24.095 24.094,24.095 C -10.788,24.095 0,13.307 0,0"
                   style="fill:#fceb23;fill-opacity:1;fill-rule:nonzero;stroke:none"
                   id="path122"
                   inkscape:connector-curvature="0" /></g></g></g></g><g
           id="g130"><g
             id="g132" /><g
             id="g144"><g
               clip-path="url(#clipPath136)"
               id="g142"
               style="opacity:0.5"><g
                 transform="translate(2779.937,4644.5654)"
                 id="g140"><path
                   d="m 0,0 c 0,-3.444 -2.792,-6.236 -6.236,-6.236 -3.444,0 -6.237,2.792 -6.237,6.236 0,3.444 2.793,6.236 6.237,6.236 C -2.792,6.236 0,3.444 0,0"
                   style="fill:#fceb23;fill-opacity:1;fill-rule:nonzero;stroke:none"
                   id="path138"
                   inkscape:connector-curvature="0" /></g></g></g></g><g
           id="g146"><g
             id="g148" /><g
             id="g160"><g
               clip-path="url(#clipPath152)"
               id="g158"
               style="opacity:0.5"><g
                 transform="translate(2797.7954,4644.5654)"
                 id="g156"><path
                   d="m 0,0 c 0,-13.307 -10.788,-24.094 -24.095,-24.094 -13.307,0 -24.094,10.787 -24.094,24.094 0,13.307 10.787,24.095 24.094,24.095 C -10.788,24.095 0,13.307 0,0"
                   style="fill:#fceb23;fill-opacity:1;fill-rule:nonzero;stroke:none"
                   id="path154"
                   inkscape:connector-curvature="0" /></g></g></g></g><g
           id="g162"><g
             id="g164" /><g
             id="g174"><g
               clip-path="url(#clipPath168)"
               id="g172"
               style="opacity:0.5"><path
                 d="m 1717.795,3429.92 h -65.197 v 34.016 h 65.197 z"
                 style="fill:#e41f25;fill-opacity:1;fill-rule:nonzero;stroke:none"
                 id="path170"
                 inkscape:connector-curvature="0" /></g></g></g><g
           id="g176"><g
             id="g178" /><g
             id="g190"><g
               clip-path="url(#clipPath182)"
               id="g188"
               style="opacity:0.5"><g
                 transform="translate(1717.7954,3446.9277)"
                 id="g186"><path
                   d="m 0,0 c 0,-9.393 -7.615,-17.008 -17.008,-17.008 -9.393,0 -17.008,7.615 -17.008,17.008 0,9.393 7.615,17.008 17.008,17.008 C -7.615,17.008 0,9.393 0,0"
                   style="fill:#e41f25;fill-opacity:1;fill-rule:nonzero;stroke:none"
                   id="path184"
                   inkscape:connector-curvature="0" /></g></g></g></g><g
           id="g192"><g
             id="g194" /><g
             id="g206"><g
               clip-path="url(#clipPath198)"
               id="g204"
               style="opacity:0.5"><g
                 transform="translate(1706.4565,3446.9277)"
                 id="g202"><path
                   d="m 0,0 c 0,-3.131 -2.538,-5.669 -5.669,-5.669 -3.131,0 -5.669,2.538 -5.669,5.669 0,3.131 2.538,5.669 5.669,5.669 C -2.538,5.669 0,3.131 0,0"
                   style="fill:#e41f25;fill-opacity:1;fill-rule:nonzero;stroke:none"
                   id="path200"
                   inkscape:connector-curvature="0" /></g></g></g></g></g></g></g></svg>