<?xml version="1.0" encoding="UTF-8" standalone="no"?>
<!-- Created with Inkscape (http://www.inkscape.org/) -->

<svg
   xmlns:dc="http://purl.org/dc/elements/1.1/"
   xmlns:cc="http://creativecommons.org/ns#"
   xmlns:rdf="http://www.w3.org/1999/02/22-rdf-syntax-ns#"
   xmlns:svg="http://www.w3.org/2000/svg"
   xmlns="http://www.w3.org/2000/svg"
   xmlns:sodipodi="http://sodipodi.sourceforge.net/DTD/sodipodi-0.dtd"
   xmlns:inkscape="http://www.inkscape.org/namespaces/inkscape"
   version="1.1"
   id="svg2"
   xml:space="preserve"
   width="2673.4595"
   height="1286.3748"
   viewBox="0 0 2673.4595 1286.3748"
   sodipodi:docname="Grand design bois - base modifiable.svg"
   inkscape:version="0.92.2 2405546, 2018-03-11"><metadata
     id="metadata8"><rdf:RDF><cc:Work
         rdf:about=""><dc:format>image/svg+xml</dc:format><dc:type
           rdf:resource="http://purl.org/dc/dcmitype/StillImage" /><dc:title></dc:title></cc:Work></rdf:RDF></metadata><defs
     id="defs6"><clipPath
       clipPathUnits="userSpaceOnUse"
       id="clipPath26"><path
         d="M 0,5669.29 H 5669.29 V 0 H 0 Z"
         id="path24"
         inkscape:connector-curvature="0" /></clipPath><clipPath
       clipPathUnits="userSpaceOnUse"
       id="clipPath88"><path
         d="M 0,5669.29 H 5669.29 V 0 H 0 Z"
         id="path86"
         inkscape:connector-curvature="0" /></clipPath><clipPath
       clipPathUnits="userSpaceOnUse"
       id="clipPath96"><path
         d="m 2030.46,4650.8 h 12.47 v -12.47 h -12.47 z"
         id="path94"
         inkscape:connector-curvature="0" /></clipPath><clipPath
       clipPathUnits="userSpaceOnUse"
       id="clipPath112"><path
         d="m 2012.6,4668.66 h 48.19 v -48.19 h -48.19 z"
         id="path110"
         inkscape:connector-curvature="0" /></clipPath><clipPath
       clipPathUnits="userSpaceOnUse"
       id="clipPath128"><path
         d="m 2767.46,4650.8 h 12.48 v -12.47 h -12.48 z"
         id="path126"
         inkscape:connector-curvature="0" /></clipPath><clipPath
       clipPathUnits="userSpaceOnUse"
       id="clipPath144"><path
         d="m 2749.61,4668.66 h 48.19 v -48.19 h -48.19 z"
         id="path142"
         inkscape:connector-curvature="0" /></clipPath><clipPath
       clipPathUnits="userSpaceOnUse"
       id="clipPath160"><path
         d="m 1652.6,3463.94 h 65.2 v -34.02 h -65.2 z"
         id="path158"
         inkscape:connector-curvature="0" /></clipPath><clipPath
       clipPathUnits="userSpaceOnUse"
       id="clipPath174"><path
         d="m 1683.78,3463.94 h 34.02 v -34.02 h -34.02 z"
         id="path172"
         inkscape:connector-curvature="0" /></clipPath><clipPath
       clipPathUnits="userSpaceOnUse"
       id="clipPath190"><path
         d="m 1695.12,3452.6 h 11.34 v -11.34 h -11.34 z"
         id="path188"
         inkscape:connector-curvature="0" /></clipPath></defs><sodipodi:namedview
     pagecolor="#ffffff"
     bordercolor="#666666"
     borderopacity="1"
     objecttolerance="10"
     gridtolerance="10"
     guidetolerance="10"
     inkscape:pageopacity="0"
     inkscape:pageshadow="2"
     inkscape:window-width="1311"
     inkscape:window-height="704"
     id="namedview4"
     showgrid="false"
     fit-margin-top="0"
     fit-margin-left="0"
     fit-margin-right="0"
     fit-margin-bottom="0"
     inkscape:zoom="0.17661175"
     inkscape:cx="2441.4313"
     inkscape:cy="574.54135"
     inkscape:window-x="55"
     inkscape:window-y="30"
     inkscape:window-maximized="1"
     inkscape:current-layer="g10" /><g
     id="g10"
     inkscape:groupmode="layer"
     inkscape:label="Projet uselessbox 2.0"
     transform="matrix(1.3333333,0,0,-1.3333333,-1057.6014,6350.272)"><g
       id="g12"
       transform="translate(2409.4487,4149.9199)"
       style="fill:none;stroke:#0000ff;stroke-opacity:1"><path
         d="M 0,0 V -11.338 H -56.692 L -56.693,0 h -25.512 v 260.788 h 25.512 l 10e-4,11.338 H 0 V 260.788 H 28.347 V 215.433 H 17.008 V 158.74 H 28.347 V 102.047 H 17.008 V 45.354 H 28.347 V 0 Z"
         style="fill:none;fill-opacity:1;fill-rule:nonzero;stroke:#0000ff;stroke-opacity:1"
         id="path14"
         inkscape:connector-curvature="0" /></g><g
       id="g16"
       transform="translate(2721.2598,4149.9199)"
       style="fill:none;stroke:#0000ff;stroke-opacity:1"><path
         d="M 0,0 V -11.338 H -56.693 V 0 h -56.693 v -11.338 h -56.693 V 0 h -45.354 v 45.354 h -11.338 v 56.693 h 11.338 v 56.693 h -11.338 v 56.693 h 11.338 v 45.355 h 45.354 v 11.338 h 56.693 v -11.338 h 56.693 v 11.338 H 0 V 260.788 H 56.693 V 0 Z"
         style="fill:none;fill-opacity:1;fill-rule:nonzero;stroke:#0000ff;stroke-opacity:1"
         id="path18"
         inkscape:connector-curvature="0" /></g><g
       id="g20"><g
         id="g22"
         clip-path="url(#clipPath26)"><g
           id="g28"
           transform="translate(2773.7007,4638.3291)"
           style="fill:none;stroke:#0000ff;stroke-opacity:1"><path
             d="m 0,0 c -3.444,0 -6.236,2.792 -6.236,6.236 0,3.445 2.792,6.237 6.236,6.237 3.444,0 6.236,-2.792 6.236,-6.237 C 6.236,2.792 3.444,0 0,0 m 4.252,29.949 v 8.886 H -7.086 V 95.528 H 4.252 v 28.347 h -56.693 v -11.339 h -56.693 v 11.339 h -56.693 v -11.339 h -56.693 v 11.339 h -56.692 V 58.678 c 0,-26.615 21.574,-48.19 48.189,-48.19 H -24.094 V 6.236 c 0,-13.307 10.787,-24.094 24.094,-24.094 13.307,0 24.095,10.787 24.095,24.094 0,11.856 -8.565,21.704 -19.843,23.713"
             style="fill:none;fill-opacity:1;fill-rule:nonzero;stroke:#0000ff;stroke-opacity:1"
             id="path30"
             inkscape:connector-curvature="0" /></g><g
           id="g32"
           transform="translate(2779.937,3916.0615)"
           style="fill:none;stroke:#0000ff;stroke-opacity:1"><path
             d="m 0,0 c 0,-3.444 -2.792,-6.236 -6.236,-6.236 -3.444,0 -6.236,2.792 -6.236,6.236 0,3.444 2.792,6.236 6.236,6.236 C -2.792,6.236 0,3.444 0,0 M 17.858,0 C 17.858,13.307 7.071,24.095 -6.236,24.095 -19.543,24.095 -30.331,13.307 -30.331,0 V -4.252 H -237.26 c -26.614,0 -48.189,-21.575 -48.189,-48.189 v -65.197 h 56.693 v 11.339 h 56.693 v -11.339 h 56.693 v 11.339 h 56.693 v -11.339 h 56.693 v 28.347 l -11.339,-0.001 v 56.694 h 11.339 v 8.886 C 9.294,-21.703 17.858,-11.855 17.858,0"
             style="fill:none;fill-opacity:1;fill-rule:nonzero;stroke:#0000ff;stroke-opacity:1"
             id="path34"
             inkscape:connector-curvature="0" /></g><g
           id="g38"
           transform="translate(935.4331,4271.8096)"
           style="fill:none;stroke:#0000ff;stroke-opacity:1"><path
             d="m 0,0 c -4.697,0 -8.504,3.808 -8.504,8.504 0,4.697 3.807,8.504 8.504,8.504 4.697,0 8.504,-3.807 8.504,-8.504 C 8.504,3.808 4.697,0 0,0 m 141.732,36.851 v 56.692 h -11.338 v 56.693 H 85.039 L 85.04,138.898 H 28.346 l 0.001,11.338 h -56.693 l -0.001,-11.338 H -85.04 l 0.001,11.338 h -56.693 v -283.464 h 56.693 l -0.001,11.338 h 56.693 l 0.001,-11.338 h 56.693 l -0.001,11.338 H 85.04 l -0.001,-11.338 h 45.355 v 56.693 l 11.338,-0.001 v 56.694 h -11.338 v 56.693 z"
             style="fill:none;fill-opacity:1;fill-rule:nonzero;stroke:#0000ff;stroke-opacity:1"
             id="path40"
             inkscape:connector-curvature="0" /></g><g
           id="g46"
           transform="translate(1346.4565,3879.2114)"
           style="fill:none;stroke:#0000ff;stroke-opacity:1"><path
             d="M 0,0 C -0.783,0 -1.417,0.634 -1.417,1.417 -1.417,2.2 -0.783,2.834 0,2.834 0.783,2.834 1.417,2.2 1.417,1.417 1.417,0.634 0.783,0 0,0 m -25.512,-1.417 c -1.565,0 -2.834,1.269 -2.834,2.834 0,1.566 1.269,2.835 2.834,2.835 1.566,0 2.835,-1.269 2.835,-2.835 0,-1.565 -1.269,-2.834 -2.835,-2.834 m 0,-24.095 c -0.782,0 -1.417,0.635 -1.417,1.417 0,0.783 0.635,1.418 1.417,1.418 0.783,0 1.418,-0.635 1.418,-1.418 0,-0.782 -0.635,-1.417 -1.418,-1.417 M -51.023,0 c -0.783,0 -1.418,0.634 -1.418,1.417 0,0.783 0.635,1.417 1.418,1.417 0.782,0 1.417,-0.634 1.417,-1.417 C -49.606,0.634 -50.241,0 -51.023,0 m 25.511,28.346 c 0.783,0 1.418,-0.634 1.418,-1.417 0,-0.783 -0.635,-1.417 -1.418,-1.417 -0.782,0 -1.417,0.634 -1.417,1.417 0,0.783 0.635,1.417 1.417,1.417 m 51.024,160.158 h -5.669 -48.189 v -11.339 h -11.339 v -11.338 h 11.339 v -11.339 h 39.685 14.173 c 6.262,0 11.339,-5.076 11.339,-11.339 V 93.938 c 0,-2.978 -1.172,-5.836 -3.262,-7.957 L -10.515,41.208 c -4.665,1.759 -9.716,2.729 -14.997,2.729 -23.483,0 -42.519,-19.037 -42.519,-42.52 0,-23.483 19.036,-42.52 42.519,-42.52 23.483,0 42.52,19.037 42.52,42.52 0,5.666 -1.117,11.067 -3.128,16.01 l 43.899,44.442 c 8.385,8.488 13.087,19.94 13.087,31.872 v 49.408 c 0,25.049 -20.305,45.355 -45.354,45.355"
             style="fill:none;fill-opacity:1;fill-rule:nonzero;stroke:#0000ff;stroke-opacity:1"
             id="path48"
             inkscape:connector-curvature="0" /></g><path
           d="m 1227.401,4045.038 h -14.173 v 11.338 h 14.173 z m -28.346,14.173 v -17.007 c 0,-4.697 3.807,-8.505 8.504,-8.505 h 25.512 c 4.697,0 8.504,3.808 8.504,8.505 v 17.007 c 0,4.697 -3.807,8.504 -8.504,8.504 h -25.512 c -4.697,0 -8.504,-3.807 -8.504,-8.504"
           style="fill:none;fill-opacity:1;fill-rule:nonzero;stroke:#0000ff;stroke-opacity:1"
           id="path54"
           inkscape:connector-curvature="0" /><path
           d="m 1842.52,4328.503 h -170.079 v 11.338 h 170.079 z m 198.425,36.85 v 45.355 h -56.693 v 11.338 h -56.693 l 10e-4,-11.338 h -56.694 v 11.338 h -56.693 v -11.338 h -56.693 v 11.338 h -56.693 l -10e-4,-11.338 h -56.693 l 10e-4,11.338 h -56.692 l -10e-4,-11.338 h -56.693 l 10e-4,11.338 h -45.355 v -56.692 h -11.338 v -5.67 -51.024 h 11.338 v -56.693 h -11.338 v -56.693 l 11.338,10e-4 v -56.693 h 45.355 v 11.338 h 56.693 l -10e-4,-11.338 h 56.694 l -10e-4,11.338 h 56.693 v -11.338 h 56.693 v 11.338 h 56.693 v -11.338 h 56.693 v 11.338 h 56.694 l -10e-4,-11.338 h 56.693 v 11.338 h 56.693 v 45.354 h -11.339 v 56.693 h 11.339 v 56.693 h -11.339 v 56.693 z"
           style="fill:none;fill-opacity:1;fill-rule:nonzero;stroke:#0000ff;stroke-opacity:1"
           id="path56"
           inkscape:connector-curvature="0" /><path
           d="m 1360.63,4328.503 h -56.693 v 11.338 h 56.693 z m 56.693,36.851 v 56.692 h -56.693 v -11.338 h -56.693 v 11.338 h -56.694 v -11.338 h -56.693 v 11.338 h -56.693 v -56.692 h 11.339 v -56.693 h -11.339 v -56.693 h 11.339 v -56.693 h -11.339 v -56.692 h 56.693 v 11.338 h 56.693 v -11.338 h 56.694 v 11.338 h 56.693 v -11.338 h 56.693 v 56.692 h -11.339 v 56.693 h 11.339 v 56.694 h -11.339 v 56.693 h 11.339 z"
           style="fill:none;fill-opacity:1;fill-rule:nonzero;stroke:#0000ff;stroke-opacity:1"
           id="path58"
           inkscape:connector-curvature="0" /><path
           d="m 2211.023,4328.503 h -56.693 v 11.338 h 56.693 z m 45.356,93.543 -10e-4,-11.338 h -45.355 l 10e-4,11.338 h -56.693 v -11.338 h -45.354 l -10e-4,-45.355 h -11.338 v -56.694 h 11.338 v -56.693 h -11.338 v -56.693 h 11.338 l 10e-4,-45.354 h 45.354 v -11.338 h 56.693 l -10e-4,11.338 h 45.355 v -11.338 h 11.339 v 283.464 h -11.338 z"
           style="fill:none;fill-opacity:1;fill-rule:nonzero;stroke:#0000ff;stroke-opacity:1"
           id="path60"
           inkscape:connector-curvature="0" /><path
           d="m 1955.905,4609.133 h -113.386 v 11.338 h 113.386 z m 73.701,-17.008 h 11.339 l -10e-4,28.346 h -4.252 c -13.306,0 -24.094,10.788 -24.094,24.094 v 4.252 h -161.575 -45.354 c -26.613,0 -48.189,21.576 -48.189,48.19 v 53.859 h -56.693 v 11.338 h -56.693 l 10e-4,-11.338 h -56.694 v 11.338 h -56.692 v -11.338 h -45.355 v -45.354 h -11.338 v -56.692 h 11.338 v -56.693 h -11.338 v -56.693 h 11.338 v -45.356 h 45.354 l 10e-4,-11.338 h 56.692 v 11.338 h 56.692 v -11.338 h 56.692 l -10e-4,11.338 h 56.693 l 10e-4,-11.338 h 56.693 l -10e-4,11.338 h 56.693 l 10e-4,-11.338 h 56.693 l -10e-4,11.338 h 56.693 l 10e-4,-11.338 h 56.693 v 56.693 h -11.339 v 56.693 z"
           style="fill:none;fill-opacity:1;fill-rule:nonzero;stroke:#0000ff;stroke-opacity:1"
           id="path66"
           inkscape:connector-curvature="0" /><path
           d="m 1955.905,3940.156 h -113.386 v 11.338 h 113.386 z m 73.701,85.04 11.339,-10e-4 v 56.694 h -56.693 l -10e-4,-11.339 h -56.693 l 10e-4,11.339 h -56.693 l -10e-4,-11.339 h -56.693 l 10e-4,11.339 h -56.693 l -10e-4,-11.339 h -56.693 l 10e-4,11.339 h -56.692 v -11.339 h -56.692 v 11.339 h -56.692 l -10e-4,-11.339 h -45.354 v -45.356 h -11.338 V 3968.5 h 11.338 v -56.693 h -11.338 v -56.691 h 11.338 v -45.354 h 45.355 v -11.338 h 56.692 v 11.338 h 56.694 l -10e-4,-11.338 h 56.693 v 11.338 h 56.693 v 53.859 c 0,26.613 21.576,48.189 48.189,48.189 h 45.354 161.575 v 4.252 c 0,13.307 10.788,24.094 24.094,24.094 h 4.252 l 10e-4,28.346 h -11.339 v 56.694 z"
           style="fill:none;fill-opacity:1;fill-rule:nonzero;stroke:#0000ff;stroke-opacity:1"
           id="path68"
           inkscape:connector-curvature="0" /></g></g></g></svg>